<?xml version="1.0" standalone="no"?>
<!DOCTYPE svg PUBLIC "-//W3C//DTD SVG 20010904//EN"
 "http://www.w3.org/TR/2001/REC-SVG-20010904/DTD/svg10.dtd">
<svg version="1.0" xmlns="http://www.w3.org/2000/svg"
 width="70.000000pt" height="70.000000pt" viewBox="0 0 70.000000 70.000000"
 preserveAspectRatio="xMidYMid meet">

<g transform="translate(0.000000,70.000000) scale(0.100000,-0.100000)"
fill="#000000" stroke="none">
<path d="M230 674 c-238 -76 -307 -409 -120 -577 82 -74 129 -92 240 -92 83 1
101 4 147 28 96 50 157 121 181 210 13 46 7 48 -13 5 l-14 -33 7 30 c4 17 7
66 7 110 0 63 -5 90 -24 128 -29 59 -97 129 -153 156 -55 26 -128 38 -128 21
0 -6 6 -10 13 -7 23 7 105 -21 151 -52 49 -34 96 -95 114 -150 7 -19 12 -66
12 -106 0 -121 -63 -221 -176 -275 -54 -26 -183 -30 -238 -6 -135 57 -213 200
-187 342 23 123 118 222 230 240 23 4 41 11 41 17 0 6 -15 7 -37 4 -37 -6 -37
-6 -13 8 31 18 18 18 -40 -1z"/>
<path d="M271 609 c-79 -24 -154 -100 -181 -183 -16 -50 -9 -140 15 -191 94
-197 375 -206 478 -17 96 176 -19 387 -216 398 -34 2 -77 -1 -96 -7z m109 -38
c25 -15 28 -20 15 -25 -13 -5 -16 -17 -13 -63 2 -32 8 -57 12 -57 4 1 29 14
56 28 38 20 48 31 43 44 -5 13 1 11 26 -8 26 -20 34 -34 36 -63 1 -30 -1 -35
-11 -26 -10 8 -25 5 -59 -15 -25 -15 -45 -29 -45 -31 0 -3 22 -16 49 -29 37
-19 51 -22 60 -13 10 9 12 3 9 -27 -2 -30 -10 -44 -37 -65 -31 -24 -33 -24
-27 -5 5 17 -2 24 -45 44 -27 13 -52 27 -55 32 -3 4 2 20 10 36 13 26 13 32
-4 60 -16 26 -26 32 -53 32 -28 0 -37 -6 -52 -34 -17 -32 -18 -36 -2 -60 9
-14 17 -28 17 -31 0 -2 -25 -19 -56 -36 -38 -22 -53 -36 -49 -46 4 -11 -3 -10
-27 5 -28 18 -34 28 -36 63 -3 37 -1 41 11 30 12 -10 24 -8 61 11 25 13 46 25
46 28 0 3 -22 17 -48 32 -37 21 -51 25 -60 16 -9 -9 -12 -2 -12 28 0 34 5 42
30 57 22 14 30 15 30 5 0 -11 88 -68 105 -68 3 0 5 29 5 65 0 55 -3 65 -17 65
-11 1 -5 8 17 20 19 11 36 19 37 20 2 0 16 -8 33 -19z m10 -346 c0 -45 4 -65
13 -65 6 0 -2 -10 -20 -21 l-32 -20 -38 20 c-22 12 -31 20 -20 21 14 0 17 10
17 65 l0 65 40 0 40 0 0 -65z"/>
</g>
</svg>
